<svg xmlns="http://www.w3.org/2000/svg" width="121.032" height="35.861" viewBox="0 0 121.032 35.861"><defs><style>.a{fill:#a6a6a6;}.b{fill:#fff;}</style></defs><path class="a" d="M116.726,35.861H4.24A4.249,4.249,0,0,1,0,31.618V4.237A4.243,4.243,0,0,1,4.24,0H116.726a4.3,4.3,0,0,1,4.306,4.237V31.618a4.307,4.307,0,0,1-4.306,4.243Z" transform="translate(0 0)"/><path d="M120.256,31.711a3.434,3.434,0,0,1-3.437,3.434H4.332A3.438,3.438,0,0,1,.89,31.711V4.328A3.442,3.442,0,0,1,4.332.89H116.818a3.437,3.437,0,0,1,3.437,3.438V31.711Z" transform="translate(-0.092 -0.092)"/><g transform="translate(11.468 5.574)"><path class="b" d="M28.334,19.017a5.2,5.2,0,0,1,2.475-4.361,5.323,5.323,0,0,0-4.192-2.266c-1.763-.186-3.474,1.055-4.372,1.055-.916,0-2.3-1.037-3.791-1.007a5.581,5.581,0,0,0-4.7,2.865c-2.032,3.517-.516,8.686,1.43,11.528.974,1.392,2.111,2.947,3.6,2.892,1.457-.06,2-.929,3.759-.929,1.742,0,2.253.929,3.772.894,1.564-.025,2.548-1.4,3.488-2.8A11.5,11.5,0,0,0,31.4,23.638,5.024,5.024,0,0,1,28.334,19.017Z" transform="translate(-12.792 -6.854)"/><path class="b" d="M26.533,9.883A5.115,5.115,0,0,0,27.7,6.217,5.211,5.211,0,0,0,24.334,7.96a4.868,4.868,0,0,0-1.2,3.531A4.3,4.3,0,0,0,26.533,9.883Z" transform="translate(-13.859 -6.217)"/></g><g transform="translate(38.022 16.138)"><path class="b" d="M52.483,30.127H50.446l-1.115-3.5H45.455l-1.062,3.5H42.41L46.251,18.2h2.372ZM49,25.152l-1.009-3.115q-.16-.477-.6-2.248h-.036q-.176.761-.567,2.248l-.991,3.115Z" transform="translate(-42.41 -18.021)"/><path class="b" d="M63.706,26.083a4.889,4.889,0,0,1-1.186,3.469,3.468,3.468,0,0,1-2.638,1.133,2.637,2.637,0,0,1-2.443-1.221H57.4V34H55.492V24.72q0-1.38-.071-2.832H57.1l.107,1.364h.036a3.4,3.4,0,0,1,5.443-.337A4.74,4.74,0,0,1,63.706,26.083Zm-1.947.07a3.542,3.542,0,0,0-.567-2.071,1.957,1.957,0,0,0-1.664-.85,1.988,1.988,0,0,0-1.283.469,2.175,2.175,0,0,0-.752,1.231,2.5,2.5,0,0,0-.089.583v1.434a2.3,2.3,0,0,0,.576,1.585,1.908,1.908,0,0,0,1.5.646,1.957,1.957,0,0,0,1.681-.832A3.662,3.662,0,0,0,61.759,26.153Z" transform="translate(-43.756 -18.385)"/><path class="b" d="M74.743,26.083a4.885,4.885,0,0,1-1.187,3.469,3.465,3.465,0,0,1-2.637,1.133,2.635,2.635,0,0,1-2.442-1.221h-.036V34H66.53V24.72q0-1.38-.071-2.832H68.14l.107,1.364h.036a3.4,3.4,0,0,1,5.444-.337A4.753,4.753,0,0,1,74.743,26.083Zm-1.947.07a3.542,3.542,0,0,0-.568-2.071,1.954,1.954,0,0,0-1.663-.85,1.99,1.99,0,0,0-1.284.469,2.173,2.173,0,0,0-.751,1.231,2.552,2.552,0,0,0-.089.583v1.434a2.306,2.306,0,0,0,.574,1.585,1.912,1.912,0,0,0,1.5.646,1.957,1.957,0,0,0,1.681-.832A3.662,3.662,0,0,0,72.8,26.153Z" transform="translate(-44.898 -18.385)"/><path class="b" d="M87.185,26.761a3.18,3.18,0,0,1-1.06,2.478,4.7,4.7,0,0,1-3.25,1.044,5.689,5.689,0,0,1-3.092-.743l.443-1.593a5.24,5.24,0,0,0,2.763.762,2.612,2.612,0,0,0,1.683-.488,1.593,1.593,0,0,0,.6-1.3,1.662,1.662,0,0,0-.5-1.223,4.609,4.609,0,0,0-1.646-.923Q80,23.6,80,21.351a3.027,3.027,0,0,1,1.1-2.411A4.329,4.329,0,0,1,84.017,18a5.791,5.791,0,0,1,2.708.567l-.478,1.558a4.7,4.7,0,0,0-2.283-.549,2.311,2.311,0,0,0-1.574.5,1.417,1.417,0,0,0-.478,1.08,1.458,1.458,0,0,0,.548,1.168,6.192,6.192,0,0,0,1.736.921,5.889,5.889,0,0,1,2.266,1.451A3.031,3.031,0,0,1,87.185,26.761Z" transform="translate(-46.277 -18.001)"/><path class="b" d="M94.483,23.1H92.376v4.177q0,1.594,1.115,1.593a3.4,3.4,0,0,0,.849-.089l.053,1.451a4.331,4.331,0,0,1-1.486.212,2.294,2.294,0,0,1-1.771-.69A3.391,3.391,0,0,1,90.5,27.43V23.093H89.244V21.659H90.5V20.084l1.877-.567v2.142h2.107Z" transform="translate(-47.256 -18.158)"/><path class="b" d="M104.718,26.118a4.719,4.719,0,0,1-1.133,3.257,4.046,4.046,0,0,1-3.152,1.31,3.847,3.847,0,0,1-3.017-1.256,4.574,4.574,0,0,1-1.124-3.168,4.673,4.673,0,0,1,1.159-3.274,4.012,4.012,0,0,1,3.124-1.275,3.929,3.929,0,0,1,3.045,1.257A4.522,4.522,0,0,1,104.718,26.118Zm-1.983.062a3.87,3.87,0,0,0-.513-2.041,1.888,1.888,0,0,0-1.716-1.029,1.917,1.917,0,0,0-1.753,1.029,3.944,3.944,0,0,0-.513,2.077,3.864,3.864,0,0,0,.513,2.041,1.954,1.954,0,0,0,3.452-.018A3.883,3.883,0,0,0,102.735,26.18Z" transform="translate(-47.985 -18.385)"/><path class="b" d="M112.09,23.569a3.319,3.319,0,0,0-.6-.053,1.806,1.806,0,0,0-1.558.762,2.864,2.864,0,0,0-.478,1.7v4.514h-1.911l.018-5.894q0-1.487-.072-2.708h1.665l.07,1.646h.053a2.942,2.942,0,0,1,.956-1.363,2.311,2.311,0,0,1,1.382-.461,3.069,3.069,0,0,1,.478.035Z" transform="translate(-49.144 -18.385)"/><path class="b" d="M121.274,25.78a4.482,4.482,0,0,1-.07.867h-5.734A2.5,2.5,0,0,0,116.3,28.6a2.84,2.84,0,0,0,1.876.6,6.342,6.342,0,0,0,2.32-.407l.3,1.327a7.173,7.173,0,0,1-2.884.532,4.178,4.178,0,0,1-3.143-1.177,4.348,4.348,0,0,1-1.141-3.159,4.929,4.929,0,0,1,1.063-3.239,3.663,3.663,0,0,1,3.008-1.38,3.206,3.206,0,0,1,2.816,1.38A4.653,4.653,0,0,1,121.274,25.78Zm-1.823-.5a2.6,2.6,0,0,0-.371-1.469,1.67,1.67,0,0,0-1.523-.8,1.813,1.813,0,0,0-1.521.779,2.852,2.852,0,0,0-.566,1.486h3.981Z" transform="translate(-49.779 -18.383)"/></g><g transform="translate(39.157 5.878)"><path class="b" d="M48.494,9.682a2.943,2.943,0,0,1-.949,2.383,3.773,3.773,0,0,1-2.5.739,11.568,11.568,0,0,1-1.374-.07V6.968a10.142,10.142,0,0,1,1.618-.122,3.489,3.489,0,0,1,2.322.67A2.706,2.706,0,0,1,48.494,9.682Zm-.991.026a2.143,2.143,0,0,0-.543-1.574,2.142,2.142,0,0,0-1.588-.548,3.976,3.976,0,0,0-.757.061V12.03a4.96,4.96,0,0,0,.635.026,2.222,2.222,0,0,0,1.665-.6A2.4,2.4,0,0,0,47.5,9.708Z" transform="translate(-43.676 -6.586)"/><path class="b" d="M54.431,10.787a2.318,2.318,0,0,1-.557,1.6,1.987,1.987,0,0,1-1.548.644,1.889,1.889,0,0,1-1.483-.618,2.25,2.25,0,0,1-.551-1.556,2.3,2.3,0,0,1,.569-1.608A1.975,1.975,0,0,1,52.4,8.623a1.933,1.933,0,0,1,1.5.617A2.231,2.231,0,0,1,54.431,10.787Zm-.975.03a1.912,1.912,0,0,0-.252-1,.928.928,0,0,0-.843-.506.942.942,0,0,0-.862.506,1.937,1.937,0,0,0-.252,1.02,1.912,1.912,0,0,0,.252,1,.948.948,0,0,0,.853.506.937.937,0,0,0,.843-.515A1.9,1.9,0,0,0,53.457,10.818Z" transform="translate(-44.361 -6.77)"/><path class="b" d="M62.058,8.719l-1.322,4.226h-.861l-.548-1.835a13.735,13.735,0,0,1-.34-1.365h-.017a10,10,0,0,1-.34,1.365l-.582,1.835h-.871L55.935,8.719H56.9l.478,2.009q.173.713.287,1.356h.017q.1-.53.349-1.347l.6-2.017H59.4l.575,1.974q.208.722.339,1.391h.026a13.3,13.3,0,0,1,.287-1.391l.513-1.974h.923Z" transform="translate(-44.944 -6.78)"/><path class="b" d="M67.77,12.935h-.94V10.514q0-1.119-.852-1.119A.848.848,0,0,0,65.3,9.7a1.091,1.091,0,0,0-.261.724v2.507H64.1V9.916q0-.557-.034-1.209h.826l.044.661h.026a1.357,1.357,0,0,1,.487-.51A1.588,1.588,0,0,1,66.3,8.62,1.349,1.349,0,0,1,67.284,9a1.86,1.86,0,0,1,.487,1.4Z" transform="translate(-45.786 -6.77)"/><path class="b" d="M70.98,12.721h-.939V6.556h.939Z" transform="translate(-46.404 -6.556)"/><path class="b" d="M76.78,10.787a2.318,2.318,0,0,1-.557,1.6,1.988,1.988,0,0,1-1.548.644,1.886,1.886,0,0,1-1.483-.618,2.25,2.25,0,0,1-.551-1.556,2.3,2.3,0,0,1,.569-1.608,1.974,1.974,0,0,1,1.534-.626,1.935,1.935,0,0,1,1.5.617A2.231,2.231,0,0,1,76.78,10.787Zm-.975.03a1.912,1.912,0,0,0-.252-1,.927.927,0,0,0-.842-.506.941.941,0,0,0-.862.506,1.937,1.937,0,0,0-.252,1.02,1.911,1.911,0,0,0,.252,1,.948.948,0,0,0,.853.506.936.936,0,0,0,.842-.515A1.891,1.891,0,0,0,75.8,10.818Z" transform="translate(-46.673 -6.77)"/><path class="b" d="M81.93,12.935h-.844l-.07-.487H80.99a1.447,1.447,0,0,1-1.235.583,1.274,1.274,0,0,1-.965-.383,1.2,1.2,0,0,1-.331-.861,1.313,1.313,0,0,1,.648-1.183,3.364,3.364,0,0,1,1.823-.4v-.079q0-.835-.878-.835a1.966,1.966,0,0,0-1.1.313l-.191-.617a2.71,2.71,0,0,1,1.45-.365q1.657,0,1.659,1.748v1.556A6.6,6.6,0,0,0,81.93,12.935Zm-.975-1.452v-.652Q79.4,10.8,79.4,11.683a.637.637,0,0,0,.18.5.657.657,0,0,0,.459.165.949.949,0,0,0,.575-.2.8.8,0,0,0,.341-.665Z" transform="translate(-47.275 -6.77)"/><path class="b" d="M87.819,12.721h-.834l-.044-.679h-.026a1.4,1.4,0,0,1-1.357.775,1.591,1.591,0,0,1-1.269-.6,2.337,2.337,0,0,1-.5-1.556A2.45,2.45,0,0,1,84.333,9a1.684,1.684,0,0,1,1.3-.592,1.267,1.267,0,0,1,1.191.574h.018V6.556h.94v5.027Q87.786,12.2,87.819,12.721Zm-.974-1.782v-.7a1.383,1.383,0,0,0-.026-.3,1.07,1.07,0,0,0-.34-.569.924.924,0,0,0-.628-.23.964.964,0,0,0-.827.418,1.79,1.79,0,0,0-.3,1.07,1.669,1.669,0,0,0,.289,1.018.967.967,0,0,0,.821.417.905.905,0,0,0,.742-.348A1.158,1.158,0,0,0,86.846,10.939Z" transform="translate(-47.826 -6.556)"/><path class="b" d="M96.77,10.787a2.318,2.318,0,0,1-.557,1.6,1.986,1.986,0,0,1-1.548.644,1.891,1.891,0,0,1-1.483-.618,2.25,2.25,0,0,1-.551-1.556A2.3,2.3,0,0,1,93.2,9.249a1.975,1.975,0,0,1,1.536-.626,1.931,1.931,0,0,1,1.5.617A2.231,2.231,0,0,1,96.77,10.787Zm-.974.03a1.912,1.912,0,0,0-.252-1,.929.929,0,0,0-.844-.506.944.944,0,0,0-.862.506,1.937,1.937,0,0,0-.252,1.02,1.912,1.912,0,0,0,.252,1,.96.96,0,0,0,1.7-.009A1.908,1.908,0,0,0,95.8,10.818Z" transform="translate(-48.741 -6.77)"/><path class="b" d="M102.456,12.935h-.939V10.514q0-1.119-.853-1.119a.845.845,0,0,0-.678.308,1.086,1.086,0,0,0-.261.724v2.507h-.94V9.916q0-.557-.033-1.209h.825l.044.661h.026a1.371,1.371,0,0,1,.487-.51,1.591,1.591,0,0,1,.853-.238,1.348,1.348,0,0,1,.983.383,1.857,1.857,0,0,1,.487,1.4Z" transform="translate(-49.375 -6.77)"/><path class="b" d="M109.639,9.3H108.6v2.053c0,.522.184.783.548.783a1.655,1.655,0,0,0,.419-.044l.024.713a2.111,2.111,0,0,1-.73.1,1.123,1.123,0,0,1-.869-.339,1.658,1.658,0,0,1-.314-1.139V9.3h-.618V8.6h.618V7.823l.921-.278V8.6h1.035v.7Z" transform="translate(-50.235 -6.658)"/><path class="b" d="M115.06,12.721h-.94v-2.4q0-1.136-.851-1.137a.9.9,0,0,0-.9.659,1.181,1.181,0,0,0-.044.338v2.542h-.939V6.556h.939V9.1h.018a1.42,1.42,0,0,1,1.269-.695,1.309,1.309,0,0,1,.966.383,1.925,1.925,0,0,1,.478,1.417v2.513Z" transform="translate(-50.682 -6.556)"/><path class="b" d="M120.773,10.621a2.268,2.268,0,0,1-.035.426h-2.818a1.232,1.232,0,0,0,.408.957,1.4,1.4,0,0,0,.923.3,3.113,3.113,0,0,0,1.139-.2l.147.653a3.538,3.538,0,0,1-1.418.261,2.048,2.048,0,0,1-1.543-.578,2.13,2.13,0,0,1-.56-1.552,2.419,2.419,0,0,1,.522-1.591,1.8,1.8,0,0,1,1.477-.678,1.572,1.572,0,0,1,1.382.678A2.256,2.256,0,0,1,120.773,10.621Zm-.9-.243a1.265,1.265,0,0,0-.182-.722.821.821,0,0,0-.748-.392.892.892,0,0,0-.748.383,1.422,1.422,0,0,0-.279.731Z" transform="translate(-51.264 -6.769)"/></g></svg>