<svg xmlns="http://www.w3.org/2000/svg" width="175.275" height="35.223" viewBox="0 0 175.275 35.223"><defs><style>.a{fill:#fff;}.b{fill:#fb9300;}</style></defs><g transform="translate(-122 -161.12)"><g transform="translate(122 164.686)"><g transform="translate(0 0)"><path class="a" d="M125.86,189.61l8.049.02a1.888,1.888,0,0,1,1.92,1.92,1.949,1.949,0,0,1-.146.756,1.871,1.871,0,0,1-1.019,1.019,1.734,1.734,0,0,1-.756.126H123.688l-.155-.039a1.864,1.864,0,0,1-1.106-.65,1.837,1.837,0,0,1-.427-1.212V170.544a1.942,1.942,0,0,1,.146-.756,1.865,1.865,0,0,1,1.018-1.018,2.037,2.037,0,0,1,1.513,0,1.859,1.859,0,0,1,.611.407,2.005,2.005,0,0,1,.418.611,1.842,1.842,0,0,1,.155.756Z" transform="translate(-122 -168.621)"/><path class="a" d="M154.124,188.042a9.338,9.338,0,0,1,4.936-4.926,9.177,9.177,0,0,1,10.114,1.988,9.486,9.486,0,0,1,1.979,2.938,9.264,9.264,0,0,1,0,7.2,9.474,9.474,0,0,1-1.979,2.938,9.243,9.243,0,0,1-15.05-10.134Zm3.578,5.684a5.426,5.426,0,0,0,2.861,2.86,5.361,5.361,0,0,0,4.189,0,5.481,5.481,0,0,0,1.707-1.154,5.362,5.362,0,0,0,1.144-1.707,5.444,5.444,0,0,0,0-4.178,5.334,5.334,0,0,0-2.851-2.841,5.393,5.393,0,0,0-5.9,1.145,5.517,5.517,0,0,0-1.154,1.7,5.337,5.337,0,0,0,0,4.178Z" transform="translate(-138.442 -175.829)"/><path class="a" d="M199.661,191.556l-.019.038.019.02a5.136,5.136,0,0,0,.377,1.93,5.6,5.6,0,0,0,1.058,1.688,5.354,5.354,0,0,0,1.6,1.2,4.665,4.665,0,0,0,2.007.475,5.819,5.819,0,0,0,1.9-.233,4.984,4.984,0,0,0,1.784-1.008q.292-.233.631-.456a2.194,2.194,0,0,1,.718-.311,1.827,1.827,0,0,1,.815.01,2.105,2.105,0,0,1,.905.5,1.752,1.752,0,0,1,.465.64,1.81,1.81,0,0,1,.146.756,2.068,2.068,0,0,1-.184.785,2.449,2.449,0,0,1-.524.747,7.736,7.736,0,0,1-2.836,1.849,9.653,9.653,0,0,1-3.472.627,9.429,9.429,0,0,1-6.6-2.646,9.1,9.1,0,0,1-2.007-2.909,8.838,8.838,0,0,1-.737-3.6v-.019l.019-.039-.019-.02a8.954,8.954,0,0,1,.737-3.627,9.384,9.384,0,0,1,4.975-4.936,9.131,9.131,0,0,1,3.637-.727,9.643,9.643,0,0,1,3.472.627,7.728,7.728,0,0,1,2.832,1.852,2.455,2.455,0,0,1,.524.747,2.094,2.094,0,0,1,.184.8,1.836,1.836,0,0,1-.146.766,1.745,1.745,0,0,1-.465.64,2.1,2.1,0,0,1-.905.5,1.741,1.741,0,0,1-.815,0,2.35,2.35,0,0,1-.718-.32q-.339-.223-.631-.456a5.144,5.144,0,0,0-1.784-.989,6.181,6.181,0,0,0-1.9-.252,4.824,4.824,0,0,0-1.988.494,5.361,5.361,0,0,0-1.6,1.2,5.756,5.756,0,0,0-1.067,1.688,5.07,5.07,0,0,0-.384,1.959Z" transform="translate(-160.6 -175.784)"/><path class="a" d="M233.577,191.639a8.951,8.951,0,0,1,.728-3.6,9.338,9.338,0,0,1,4.936-4.926,9.16,9.16,0,0,1,10.076,1.959,9.544,9.544,0,0,1,1.988,2.919,8.969,8.969,0,0,1,.756,3.569v7.118a1.911,1.911,0,0,1-.155.766,2.1,2.1,0,0,1-.418.63,1.88,1.88,0,0,1-.627.427,1.974,1.974,0,0,1-.776.155,1.756,1.756,0,0,1-1.289-.511,2,2,0,0,1-.591-1.244,9.385,9.385,0,0,1-2.5,1.457,7.811,7.811,0,0,1-2.87.531,8.969,8.969,0,0,1-3.589-.727,9.341,9.341,0,0,1-4.936-4.927A8.949,8.949,0,0,1,233.577,191.639Zm3.86.01a5.172,5.172,0,0,0,.427,2.089,5.438,5.438,0,0,0,2.866,2.866,5.368,5.368,0,0,0,4.2,0,5.5,5.5,0,0,0,1.71-1.156,5.361,5.361,0,0,0,1.147-1.71,5.45,5.45,0,0,0,0-4.187,5.344,5.344,0,0,0-2.855-2.846,5.4,5.4,0,0,0-5.907,1.147,5.523,5.523,0,0,0-1.156,1.7A5.156,5.156,0,0,0,237.437,191.65Z" transform="translate(-180.434 -175.829)"/><path class="a" d="M284.348,191.548a1.827,1.827,0,0,1-.553,1.358,1.88,1.88,0,0,1-1.367.543,1.909,1.909,0,0,1-1.377-.543,1.81,1.81,0,0,1-.563-1.358V170.521a1.81,1.81,0,0,1,.563-1.358,1.907,1.907,0,0,1,1.377-.543,1.875,1.875,0,0,1,1.367.543,1.827,1.827,0,0,1,.553,1.358Z" transform="translate(-205.003 -168.619)"/><path class="a" d="M300.636,191.548a1.823,1.823,0,0,1-.553,1.358,1.875,1.875,0,0,1-1.367.543,1.909,1.909,0,0,1-1.377-.543,1.81,1.81,0,0,1-.563-1.358V170.521a1.81,1.81,0,0,1,.563-1.358,1.907,1.907,0,0,1,1.377-.543,1.874,1.874,0,0,1,1.367.543,1.823,1.823,0,0,1,.553,1.358Z" transform="translate(-213.533 -168.619)"/><path class="a" d="M318.3,194.255l4.81-10.722a2.043,2.043,0,0,1,.456-.631,1.983,1.983,0,0,1,.62-.4,1.9,1.9,0,0,1,.718-.139,1.73,1.73,0,0,1,.746.174,2.185,2.185,0,0,1,.64.456,1.876,1.876,0,0,1,.348,2.124l-9.659,21.18a2.04,2.04,0,0,1-.456.631,1.961,1.961,0,0,1-.627.4,2.031,2.031,0,0,1-.737.136,1.746,1.746,0,0,1-.757-.175,1.559,1.559,0,0,1-.931-1.044,2.171,2.171,0,0,1,.155-1.493l2.637-5.936L310.052,185.1a1.885,1.885,0,0,1-.058-1.493,1.968,1.968,0,0,1,.4-.631,2.049,2.049,0,0,1,.627-.456,1.736,1.736,0,0,1,.746-.174,1.888,1.888,0,0,1,1.339.544,2.184,2.184,0,0,1,.456.64Z" transform="translate(-220.39 -175.807)"/><path class="b" d="M398.43,193.385a5.219,5.219,0,0,0,.707,1.513,5.153,5.153,0,0,0,1.135,1.2,5.222,5.222,0,0,0,1.462.785,5.1,5.1,0,0,0,1.7.278,5.018,5.018,0,0,0,2.075-.377,4.2,4.2,0,0,0,1.4-1,2.124,2.124,0,0,1,.989-.456,1.972,1.972,0,0,1,.931.087,1.372,1.372,0,0,1,.543.32,2.173,2.173,0,0,1,.388.494,2.009,2.009,0,0,1,.32,1.271,1.8,1.8,0,0,1-.728,1.27,7.567,7.567,0,0,1-1.009.806,6.9,6.9,0,0,1-1.29.668,8.487,8.487,0,0,1-1.62.456,11.07,11.07,0,0,1-2,.164,9.125,9.125,0,0,1-3.607-.717,9.251,9.251,0,0,1,7.186-17.049,9.388,9.388,0,0,1,4.943,4.868,8.86,8.86,0,0,1,.766,3.569,1.762,1.762,0,0,1-.533,1.329,1.89,1.89,0,0,1-1.368.515Zm10.318-3.219a5.353,5.353,0,0,0-.688-1.64,5.172,5.172,0,0,0-1.163-1.289,5.489,5.489,0,0,0-3.4-1.164,5.374,5.374,0,0,0-1.833.31,5.206,5.206,0,0,0-3.346,3.782Z" transform="translate(-264.526 -175.829)"/><path class="b" d="M440.739,192.2a10.18,10.18,0,0,1-1.959-1.1,5.072,5.072,0,0,1-1.377-1.484,3.829,3.829,0,0,1-.514-2.019,4.583,4.583,0,0,1,.533-2.211,5.3,5.3,0,0,1,1.416-1.678,6.657,6.657,0,0,1,2.036-1.067,7.647,7.647,0,0,1,2.4-.378,8.78,8.78,0,0,1,1.671.166,8.471,8.471,0,0,1,1.629.487,5.937,5.937,0,0,1,1.4.81,3.367,3.367,0,0,1,.95,1.151,1.8,1.8,0,0,1,.194,1.061,1.544,1.544,0,0,1-.407.845,1.794,1.794,0,0,1-.873.533,1.462,1.462,0,0,1-1.028-.088q-.407-.291-.776-.572a6.506,6.506,0,0,0-.747-.5,4.377,4.377,0,0,0-.8-.348,3.03,3.03,0,0,0-.94-.139,4,4,0,0,0-1.979.447,1.475,1.475,0,0,0-.8,1.377,1.356,1.356,0,0,0,.252.815,2.4,2.4,0,0,0,.689.62,5.69,5.69,0,0,0,1.038.494q.6.224,1.318.437,1.164.368,2.211.8a7.872,7.872,0,0,1,1.852,1.044,4.731,4.731,0,0,1,1.28,1.493,4.366,4.366,0,0,1,.476,2.115,4.8,4.8,0,0,1-.5,2.158,5.361,5.361,0,0,1-1.367,1.736,6.614,6.614,0,0,1-2.066,1.164,7.638,7.638,0,0,1-2.589.426,10.178,10.178,0,0,1-1.891-.184,8.507,8.507,0,0,1-1.88-.586A6.951,6.951,0,0,1,437.952,199a4.989,4.989,0,0,1-1.213-1.5,2.109,2.109,0,0,1-.3-1.058,1.657,1.657,0,0,1,.836-1.454,1.868,1.868,0,0,1,.844-.252,2.03,2.03,0,0,1,.95.185,2.407,2.407,0,0,1,.892.718,4.023,4.023,0,0,0,1.406,1.328,4.223,4.223,0,0,0,1.989.418,3.936,3.936,0,0,0,1.028-.136,3.449,3.449,0,0,0,.905-.378,1.943,1.943,0,0,0,.627-.6,1.594,1.594,0,0,0-.077-1.775,2.635,2.635,0,0,0-.776-.65,5.449,5.449,0,0,0-1.019-.437L443,193.078Q441.835,192.68,440.739,192.2Z" transform="translate(-286.676 -175.764)"/><path class="b" d="M474.512,175.221h1.671a1.9,1.9,0,0,1,1.386.543,1.826,1.826,0,0,1,.553,1.358,1.916,1.916,0,0,1-.553,1.4,1.864,1.864,0,0,1-1.386.563h-1.671v12.467a1.828,1.828,0,0,1-.553,1.358,1.88,1.88,0,0,1-1.368.543,1.908,1.908,0,0,1-1.376-.543,1.81,1.81,0,0,1-.563-1.358V179.078h-1.4a1.844,1.844,0,0,1-.756-.155,1.929,1.929,0,0,1-.611-.427,2.141,2.141,0,0,1-.418-.62,1.836,1.836,0,0,1-.155-.757,1.81,1.81,0,0,1,.563-1.358,1.908,1.908,0,0,1,1.377-.543h1.4v-4.694a1.81,1.81,0,0,1,.563-1.358,1.906,1.906,0,0,1,1.376-.543,1.876,1.876,0,0,1,1.368.543,1.827,1.827,0,0,1,.553,1.358Z" transform="translate(-302.848 -168.62)"/></g></g><g transform="translate(231.044 161.12)"><path class="b" d="M366.465,193.436h-.032a4.1,4.1,0,0,0-4.137,4.143c.01,2.745,3.545,6.435,4.038,6.94a.081.081,0,0,0,.116,0c.5-.5,4.057-4.173,4.056-6.972a4.053,4.053,0,0,0-4.04-4.111Zm-.062,5.693a1.693,1.693,0,1,1,1.693-1.693A1.693,1.693,0,0,1,366.4,199.129Z" transform="translate(-356.893 -178.048)"/><g transform="translate(0 0)"><path class="b" d="M350.965,179.983a13.505,13.505,0,0,0,.093,2.107,9.457,9.457,0,0,0,12.273,7.568,9.111,9.111,0,0,0,6.266-6.571,1.716,1.716,0,0,0-3.021-1.49,2.508,2.508,0,0,0-.254.655,12.479,12.479,0,0,1-1.975,3.868,24.625,24.625,0,0,1-2.424,2.871,2.054,2.054,0,0,1-1.462.609,2.081,2.081,0,0,1-1.475-.619,25.343,25.343,0,0,1-2.4-2.87,13.514,13.514,0,0,1-1.814-3.35,6.08,6.08,0,0,1-.235-.812,5.877,5.877,0,0,1-.158-1.293,6.082,6.082,0,0,1,6.124-6.136h.046a6,6,0,0,1,5.633,3.93,1.638,1.638,0,0,0,.691.848,1.613,1.613,0,0,0,1.462.085,1.69,1.69,0,0,0,.9-2.323,9.381,9.381,0,0,0-7.365-5.821,16.4,16.4,0,0,0-2.213-.1l4.625-6.6a1.708,1.708,0,0,0-.343-2.6c-.985-.566-1.785-.221-2.8,1.248l-2.7,3.611,1.026-3.286a1.724,1.724,0,1,0-3.272-1.044l-1.767,5.8s.013-2.413,0-3.364a1.731,1.731,0,1,0-3.461-.008Z" transform="translate(-350.957 -161.12)"/></g></g></g></svg>