<svg xmlns="http://www.w3.org/2000/svg" xmlns:xlink="http://www.w3.org/1999/xlink" width="346.449" height="364.542" viewBox="0 0 346.449 364.542"><defs><style>.a{fill:#fff;}.b{fill:#2b2b2b;font-size:21px;font-family:PlayfairDisplay-Bold, Playfair Display;font-weight:700;}.b,.c{letter-spacing:0.002em;}.c{fill:#001f60;font-size:13px;font-family:Poppins-Medium, Poppins;font-weight:500;}.d{fill:#e6e6e6;}.e{fill:#f9a61b;}.f{fill:#6c63ff;}.g{opacity:0.2;}.h{fill:#ffb8b8;}.i{fill:#2f2e41;}.j{fill:#3f3d56;}.k{filter:url(#a);}</style><filter id="a" x="0" y="0" width="346.449" height="364.542" filterUnits="userSpaceOnUse"><feOffset dy="10" input="SourceAlpha"/><feGaussianBlur stdDeviation="11" result="b"/><feFlood flood-opacity="0.161"/><feComposite operator="in" in2="b"/><feComposite in="SourceGraphic"/></filter></defs><g transform="translate(63.5 -2757.96)"><g transform="translate(-30.5 2780.96)"><g class="k" transform="matrix(1, 0, 0, 1, -33, -23)"><rect class="a" width="280.449" height="298.542" rx="52" transform="translate(33 23)"/></g><text class="b" transform="translate(136.485 230.815)"><tspan x="-96.894" y="0">Add to basket &amp; pay</tspan></text><text class="c" transform="translate(130.772 260.167)"><tspan x="-90.711" y="0">Find 1000&apos;s of products from</tspan><tspan x="-37.155" y="22">local shops</tspan><tspan x="0" y="44"></tspan></text><g transform="translate(36.722 21.064)"><path class="d" d="M241.252,120.106h-.939V94.37a14.9,14.9,0,0,0-14.895-14.895H170.895A14.9,14.9,0,0,0,156,94.37V235.555a14.9,14.9,0,0,0,14.895,14.895h54.523a14.9,14.9,0,0,0,14.895-14.895V138.424h.939Z" transform="translate(-156 -79.476)"/><path class="a" d="M239.549,96.107h-7.117a5.285,5.285,0,0,1-4.893,7.28H196.3a5.285,5.285,0,0,1-4.893-7.28h-6.647a11.123,11.123,0,0,0-11.123,11.123V248.208a11.123,11.123,0,0,0,11.123,11.123h54.786a11.123,11.123,0,0,0,11.123-11.123V107.231a11.123,11.123,0,0,0-11.123-11.123Z" transform="translate(-169.53 -92.232)"/><path class="d" d="M257.476,219.111h-3.271a.434.434,0,0,0-.434.434v1.436a.434.434,0,0,0,.434.434h.542v2.151h2.187v-2.151h.542a.434.434,0,0,0,.434-.434v-1.436A.434.434,0,0,0,257.476,219.111Z" transform="translate(-230.991 -186.577)"/><path class="d" d="M250.84,239.477a16.817,16.817,0,0,1-2.926-9.971.355.355,0,0,0-.277-.354v-.62h-3.455v.612h-.048a.354.354,0,0,0-.354.355q0,.013,0,.026a15.348,15.348,0,0,1-2.757,10.207.977.977,0,0,0-.177.592l.378,11.685a1.012,1.012,0,0,0,1,.976h7.814a1.012,1.012,0,0,0,1-.993l.146-11.345A2.048,2.048,0,0,0,250.84,239.477Z" transform="translate(-221.079 -193.802)"/><path class="a" d="M253.737,292.166h-6.8a.7.7,0,0,0-.69.8l1.028,6.681h5.9l1.248-6.658a.7.7,0,0,0-.686-.827Z" transform="translate(-225.212 -242.61)"/><path class="d" d="M413.761,369.345h-3.271a.434.434,0,0,0-.434.434v1.436a.434.434,0,0,0,.434.434h.542V373.8h2.187v-2.151h.542a.434.434,0,0,0,.434-.434v-1.436a.434.434,0,0,0-.434-.434Z" transform="translate(-350.862 -301.807)"/><path class="d" d="M407.125,389.712a16.817,16.817,0,0,1-2.926-9.971.355.355,0,0,0-.277-.354v-.62h-3.455v.612h-.048a.354.354,0,0,0-.354.355c0,.009,0,.017,0,.026a15.348,15.348,0,0,1-2.757,10.207.977.977,0,0,0-.177.592l.378,11.685a1.012,1.012,0,0,0,1,.976h7.814a1.012,1.012,0,0,0,1-.994l.146-11.345A2.047,2.047,0,0,0,407.125,389.712Z" transform="translate(-340.949 -309.033)"/><path class="a" d="M410.021,442.4h-6.8a.7.7,0,0,0-.69.8l1.028,6.681h5.9l1.248-6.658a.7.7,0,0,0-.686-.827Z" transform="translate(-345.083 -357.841)"/><path class="d" d="M244.15,581.733H242.6a.206.206,0,0,0-.206.206v.681a.206.206,0,0,0,.206.206h.257v1.02h1.037v-1.02h.257a.206.206,0,0,0,.206-.206v-.681A.206.206,0,0,0,244.15,581.733Z" transform="translate(-222.263 -464.709)"/><path class="d" d="M241,591.393a7.977,7.977,0,0,1-1.388-4.73.168.168,0,0,0-.131-.168V586.2h-1.639v.29h-.023a.168.168,0,0,0-.168.168s0,.008,0,.012a7.28,7.28,0,0,1-1.308,4.842.464.464,0,0,0-.084.281l.179,5.543a.48.48,0,0,0,.476.463h3.707a.48.48,0,0,0,.476-.471l.069-5.381A.971.971,0,0,0,241,591.393Z" transform="translate(-217.562 -468.137)"/><rect class="a" width="3.537" height="1.768" transform="translate(19.37 125.294)"/><path class="d" d="M275.15,581.733H273.6a.206.206,0,0,0-.206.206v.681a.206.206,0,0,0,.206.206h.257v1.02h1.037v-1.02h.257a.206.206,0,0,0,.206-.206v-.681A.206.206,0,0,0,275.15,581.733Z" transform="translate(-246.041 -464.709)"/><path class="d" d="M272,591.393a7.977,7.977,0,0,1-1.388-4.73.168.168,0,0,0-.131-.168V586.2h-1.639v.29h-.023a.168.168,0,0,0-.168.168s0,.008,0,.012a7.28,7.28,0,0,1-1.308,4.842.464.464,0,0,0-.084.281l.179,5.543a.48.48,0,0,0,.476.463h3.707a.48.48,0,0,0,.476-.471l.069-5.381A.971.971,0,0,0,272,591.393Z" transform="translate(-241.339 -468.137)"/><rect class="a" width="3.537" height="1.768" transform="translate(26.593 125.294)"/><path class="d" d="M306.15,581.733H304.6a.206.206,0,0,0-.206.206v.681a.206.206,0,0,0,.206.206h.257v1.02h1.037v-1.02h.257a.206.206,0,0,0,.206-.206v-.681A.206.206,0,0,0,306.15,581.733Z" transform="translate(-269.818 -464.709)"/><path class="d" d="M303,591.393a7.977,7.977,0,0,1-1.388-4.73.168.168,0,0,0-.131-.168V586.2h-1.639v.29h-.023a.168.168,0,0,0-.168.168s0,.008,0,.012a7.281,7.281,0,0,1-1.308,4.842.463.463,0,0,0-.084.281l.179,5.543a.48.48,0,0,0,.476.463h3.707a.48.48,0,0,0,.476-.471l.069-5.381A.971.971,0,0,0,303,591.393Z" transform="translate(-265.116 -468.137)"/><rect class="a" width="3.537" height="1.768" transform="translate(33.816 125.294)"/><path class="d" d="M389.371,523.613H386.1a.434.434,0,0,0-.434.434v1.436a.434.434,0,0,0,.434.434h.542v2.151h2.187v-2.151h.542a.434.434,0,0,0,.434-.434v-1.436A.434.434,0,0,0,389.371,523.613Z" transform="translate(-332.155 -420.131)"/><path class="d" d="M382.735,543.98a16.817,16.817,0,0,1-2.926-9.971.355.355,0,0,0-.277-.354v-.62h-3.455v.612h-.048a.354.354,0,0,0-.354.355c0,.009,0,.017,0,.026a15.348,15.348,0,0,1-2.757,10.207.977.977,0,0,0-.177.592l.378,11.685a1.012,1.012,0,0,0,1,.976h7.814a1.012,1.012,0,0,0,1-.993l.146-11.345A2.048,2.048,0,0,0,382.735,543.98Z" transform="translate(-322.243 -427.357)"/><path class="a" d="M385.632,596.668h-6.8a.7.7,0,0,0-.69.8l1.028,6.681h5.9l1.248-6.658a.7.7,0,0,0-.686-.827Z" transform="translate(-326.376 -476.165)"/><path class="d" d="M345.043,254.869h-19.5c1.363-7.37,1.05-16.27,0-25.842h19.5C344.021,238.6,343.716,247.5,345.043,254.869Z" transform="translate(-286.041 -194.182)"/><circle class="a" cx="4.699" cy="4.699" r="4.699" transform="translate(44.671 42.362)"/><path class="d" d="M268.413,402.079h-19.5c1.363-7.37,1.05-16.27,0-25.842h19.5C267.391,385.808,267.086,394.708,268.413,402.079Z" transform="translate(-227.265 -307.093)"/><circle class="a" cx="4.699" cy="4.699" r="4.699" transform="translate(26.817 76.662)"/><path class="d" d="M392.432,261.927h-19.5c1.363-7.37,1.05-16.27,0-25.842h19.5C391.41,245.656,391.105,254.556,392.432,261.927Z" transform="translate(-322.389 -199.596)"/><circle class="a" cx="4.699" cy="4.699" r="4.699" transform="translate(55.713 44.007)"/><path class="d" d="M392.432,256.886h-19.5c1.363-7.37,1.05-16.27,0-25.842h19.5C391.41,240.615,391.105,249.515,392.432,256.886Z" transform="translate(-322.389 -195.729)"/><circle class="a" cx="4.699" cy="4.699" r="4.699" transform="translate(55.713 42.832)"/><path class="d" d="M392.432,261.927h-19.5c1.363-7.37,1.05-16.27,0-25.842h19.5C391.41,245.656,391.105,254.556,392.432,261.927Z" transform="translate(-322.389 -199.596)"/><circle class="a" cx="4.699" cy="4.699" r="4.699" transform="translate(55.713 44.007)"/><rect class="d" width="63.9" height="7.048" transform="translate(10.607 59.277)"/><rect class="d" width="63.9" height="7.048" transform="translate(10.607 94.281)"/><rect class="d" width="63.9" height="7.048" transform="translate(10.607 129.285)"/><path class="e" d="M900.45,650.556,884.53,639.3c5.369-5.23,10.252-12.678,14.922-21.1l15.919,11.26C909.011,636.682,903.622,643.773,900.45,650.556Z" transform="translate(-714.786 -492.679)"/><circle class="a" cx="4.699" cy="4.699" r="4.699" transform="translate(180.969 136.493)"/><path class="d" d="M616.747,536.554H615a.232.232,0,0,0-.232.232v.767a.232.232,0,0,0,.232.232h.289v1.149h1.168v-1.149h.29a.232.232,0,0,0,.232-.232v-.767A.232.232,0,0,0,616.747,536.554Z" transform="translate(-507.877 -430.057)"/><path class="f" d="M613.2,547.434a8.984,8.984,0,0,1-1.563-5.327.189.189,0,0,0-.148-.189v-.331h-1.846v.327h-.025a.189.189,0,0,0-.189.19s0,.009,0,.014a8.2,8.2,0,0,1-1.473,5.453.522.522,0,0,0-.094.316l.2,6.242a.54.54,0,0,0,.536.522h4.174a.541.541,0,0,0,.536-.531l.078-6.061A1.094,1.094,0,0,0,613.2,547.434Z" transform="translate(-502.581 -433.917)"/><path class="g" d="M618.408,537.627a.5.5,0,1,1-1,0" transform="translate(-509.902 -430.88)"/><rect class="a" width="3.524" height="2.349" transform="translate(106.284 114.72)"/><path class="d" d="M848.406,641.218h-3.271a.434.434,0,0,0-.434.434v1.436a.434.434,0,0,0,.434.434h.542v2.151h2.187v-2.151h.542a.434.434,0,0,0,.434-.434v-1.436a.434.434,0,0,0-.434-.434Z" transform="translate(-684.237 -510.334)"/><path class="e" d="M841.77,661.585a16.818,16.818,0,0,1-2.926-9.971.355.355,0,0,0-.277-.354v-.62h-3.455v.612h-.048a.354.354,0,0,0-.354.355c0,.009,0,.017,0,.026a15.347,15.347,0,0,1-2.757,10.207.976.976,0,0,0-.177.592l.378,11.685a1.011,1.011,0,0,0,1,.976h7.814a1.012,1.012,0,0,0,1-.994l.146-11.345A2.048,2.048,0,0,0,841.77,661.585Z" transform="translate(-674.325 -517.561)"/><path class="g" d="M851.516,643.226a.936.936,0,0,1-1.871,0" transform="translate(-688.028 -511.875)"/><path class="a" d="M844.667,714.273h-6.8a.7.7,0,0,0-.69.8l1.028,6.681h5.9l1.248-6.658a.7.7,0,0,0-.686-.827Z" transform="translate(-678.458 -566.368)"/><path class="e" d="M756.357,671.927h-19.5c1.363-7.37,1.05-16.271,0-25.842h19.5C755.335,655.656,755.03,664.556,756.357,671.927Z" transform="translate(-601.521 -514.067)"/><circle class="a" cx="4.699" cy="4.699" r="4.699" transform="translate(140.506 139.535)"/><path class="h" d="M322.243,295.716l4.377-.4,2.786-6.765-4.974-2.786Z" transform="translate(-247.162 -219.185)"/><path class="h" d="M617.934,475.182h0a2.468,2.468,0,0,0-2.144-3.382l-6.8-.405-1,3.328,7,1.921A2.468,2.468,0,0,0,617.934,475.182Z" transform="translate(-502.681 -380.079)"/><path class="e" d="M509.134,417.472l-.075-6.244-15.1-2.409-11.63-13.339a3.807,3.807,0,0,0-4.962-.678h0a3.807,3.807,0,0,0-.663,5.807l9.595,11.808Z" transform="translate(-401.179 -320.852)"/><path class="i" d="M463.726,574.255h3.979l9.87-44.627L487.8,543.414l5.969,29.846h3.78l-.8-32.034L483.424,507H470.292c-3.589,6.495-6.4,13.19-3.184,20.1Z" transform="translate(-392.027 -407.391)"/><path class="i" d="M582.048,792.134a1.038,1.038,0,0,0,.81,1.332l9.738,1.728a1.6,1.6,0,0,0,1.818-1.1h0a1.592,1.592,0,0,0-.779-1.893,14.889,14.889,0,0,1-5.37-4.669,2.729,2.729,0,0,1-3.537.168l-1.347.169Z" transform="translate(-482.745 -622.559)"/><path class="i" d="M455.662,792.134a1.038,1.038,0,0,0,.81,1.332l9.738,1.728a1.6,1.6,0,0,0,1.818-1.1h0a1.592,1.592,0,0,0-.779-1.893,14.89,14.89,0,0,1-5.37-4.669,2.728,2.728,0,0,1-3.537.168l-1.347.169Z" transform="translate(-385.806 -622.559)"/><circle class="h" cx="5.571" cy="5.571" r="5.571" transform="translate(76.773 60.713)"/><path class="e" d="M473.41,418.105l14.525-.4-4.266-13.425c2.651-4.25-.017-8.5-3.793-12.739l-2.985-1.99-4.775-.4h0a11.723,11.723,0,0,0-3.157,8.167A52.608,52.608,0,0,0,473.41,418.105Z" transform="translate(-396.041 -317.001)"/><path class="h" d="M601.8,529.15h0a2.468,2.468,0,0,0-.641-3.953l-6.089-3.046-2.229,2.666,5.677,4.519A2.468,2.468,0,0,0,601.8,529.15Z" transform="translate(-491.06 -419.01)"/><path class="e" d="M522.843,435.916l2.388-5.77L512.3,421.992l-5.445-16.838a3.807,3.807,0,0,0-4.295-2.576h0a3.807,3.807,0,0,0-2.894,5.078l4.176,14.63Z" transform="translate(-419.408 -327.251)"/><path class="i" d="M470.13,332.718a10.549,10.549,0,0,0,3.184,6.964c1.195.968,2.774.927,3.382-.4a15.77,15.77,0,0,1,6.566-6.566c5.051-2.68-1.791-7.265-6.566-6.566C473.108,326.678,470.13,329.092,470.13,332.718Z" transform="translate(-396.939 -268.623)"/><circle class="i" cx="3.979" cy="3.979" r="3.979" transform="translate(72.594 53.152)"/><path class="i" d="M492.172,305.6a3.977,3.977,0,0,0-3.681-3.964c.1-.007.2-.015.3-.015a3.979,3.979,0,1,1,0,7.959c-.1,0-.2-.008-.3-.015A3.977,3.977,0,0,0,492.172,305.6Z" transform="translate(-411.022 -249.864)"/><ellipse class="h" cx="0.895" cy="1.194" rx="0.895" ry="1.194" transform="translate(81.548 65.886)"/><path class="j" d="M553.789,471.546H491.842l-13.118-62.012h-11.2v-2.782H480.98L494.1,468.764h59.692Z" transform="translate(-358.597 -311.981)"/><circle class="j" cx="5.963" cy="5.963" r="5.963" transform="translate(136.361 158.97)"/><circle class="j" cx="5.963" cy="5.963" r="5.963" transform="translate(180.882 158.97)"/><path class="j" d="M755.489,585.7H695.218l-10.634-52.553h80.885a2.858,2.858,0,0,1,2.823,3.3l-9.98,46.838a2.843,2.843,0,0,1-2.822,2.414Zm-59.616-.795h59.616a2.052,2.052,0,0,0,2.037-1.742l9.98-46.838a2.062,2.062,0,0,0-2.037-2.382h-79.92Z" transform="translate(-561.426 -427.442)"/><path class="j" d="M601.587,507.149l-6.964-51.922.784-.13,6.964,51.922Z" transform="translate(-456.078 -349.061)"/><path class="j" d="M788.128,506.754l-.785-.127L794.1,455.1l.785.127Z" transform="translate(-603.895 -349.065)"/><rect class="j" width="0.795" height="51.922" transform="translate(164.988 106.1)"/><rect class="j" width="0.795" height="76.958" transform="translate(127.217 120.808) rotate(-89.861)"/><rect class="j" width="67.61" height="0.795" transform="translate(131.138 145.035) rotate(-0.392)"/><ellipse class="j" cx="4.373" cy="2.385" rx="4.373" ry="2.385" transform="translate(105.752 93.38)"/></g></g></g></svg>