<svg xmlns="http://www.w3.org/2000/svg" xmlns:xlink="http://www.w3.org/1999/xlink" width="345.742" height="364.033" viewBox="0 0 345.742 364.033"><defs><style>.a{fill:#fff;}.b{fill:#3f3d56;}.c{fill:#a0616a;}.d{fill:#2f2e41;}.e{fill:#d0cde1;}.f{fill:#f2f2f2;}.g{fill:#f9a61b;}.h{fill:#6c63ff;}.i{fill:#2b2b2b;font-size:21px;font-family:PlayfairDisplay-Bold, Playfair Display;font-weight:700;}.i,.j{letter-spacing:0.002em;}.j{fill:#001f60;font-size:13px;font-family:Poppins-Medium, Poppins;font-weight:500;}.k{filter:url(#a);}</style><filter id="a" x="0" y="0" width="345.742" height="364.033" filterUnits="userSpaceOnUse"><feOffset dy="10" input="SourceAlpha"/><feGaussianBlur stdDeviation="11" result="b"/><feFlood flood-opacity="0.161"/><feComposite operator="in" in2="b"/><feComposite in="SourceGraphic"/></filter></defs><g transform="translate(-209 -3065.756)"><g class="k" transform="matrix(1, 0, 0, 1, 209, 3065.76)"><rect class="a" width="279.742" height="298.033" rx="52" transform="translate(33 23)"/></g><g transform="translate(288.584 3122.125)"><ellipse class="b" cx="91.673" cy="7.162" rx="91.673" ry="7.162" transform="translate(0 135.169)"/><path class="c" d="M761.13,582.46l.859,6.3-6.015.573.859-7.733Z" transform="translate(-591.585 -453.434)"/><path class="c" d="M808.536,303.812s.573,7.733.573,8.019-4.01,20.049-4.01,20.049-5.728,10.883,0,10.6,4.01-10.311,4.01-10.311l6.015-16.612-2.578-11.743Z" transform="translate(-667.345 -261.281)"/><path class="c" d="M690.551,582.46l-.859,6.3,6.015.573-.859-7.733Z" transform="translate(-539.909 -453.434)"/><path class="d" d="M836.281,423.515l-1.432,2s-.859,8.592,0,11.456,2.578,16.039,2.578,16.9.286,1.432,0,1.718-1.146.286-.573.859.573,2.291.573,2.291v1.432l3.723,21.194s-2.291,2.578-.573,2.578,8.019,0,7.733-2.864l-.573-.286s-.859-18.9-.573-19.762a7.31,7.31,0,0,0,0-2.578s-.573-.859,0-1.146.573-2.578.573-2.578l2.578-17.471s2.291,11.743,3.723,12.888,1.146,4.01,1.146,4.01l1.146,25.2s-1.146,2.864,0,3.437,6.015,2.578,6.3-.286,1.718-27.782,1.718-28.927-.286-1.718,0-2.578-.286-.859,0-.859-.573-.859-.573-1.432V434.685a21.153,21.153,0,0,1,.573-3.437c.286-.573-.286-1.146,0-2s-.573-3.723-.573-3.723l-12.888-3.437Z" transform="translate(-692.226 -353.488)"/><path class="d" d="M859.4,714.64s1.432-1.432-.573-1.432a9.322,9.322,0,0,0-3.723.859l-1.432,5.155s-5.871,4.726.716,4.153,5.585-.143,5.585-.143,2-.573,2.291-1.146-.573-8.879-.573-8.879S860.829,715.5,859.4,714.64Z" transform="translate(-705.318 -580.458)"/><path class="d" d="M930.786,714.64s-1.432-1.432.573-1.432a9.323,9.323,0,0,1,3.723.859l1.432,5.155s5.871,4.726-.716,4.153-6.444-.143-6.444-.143-2-.573-2.291-1.146,1.432-8.879,1.432-8.879S929.354,715.5,930.786,714.64Z" transform="translate(-764.392 -580.458)"/><circle class="c" cx="7.447" cy="7.447" r="7.447" transform="translate(140.331 5.012)"/><path class="c" d="M847.9,181.908s1.146,5.728,1.146,6.587,4.869,3.437,4.869,3.437l5.442-6.874s-3.437-4.869-3.437-6.015Z" transform="translate(-702.697 -164.008)"/><path class="e" d="M827.875,204.619s-2.5-.664-3.253-1.764c0,0-7.917,7.779-7.917,9.211l6.3,11.17s0,4.01.573,4.3,0,0,0,1.146-1.718,8.592-1.146,9.738,1.146.286.573,2-2,10.883-2,10.883,5.155-1.718,12.6,1.146,16.325-1.146,16.325-1.146-2.291-5.155-1.718-6.874-1.432-4.869-1.432-4.869l-1.432-26.349s2-11.743.573-12.315l-2.864-1.146-9.172-1.127S831.6,204.332,827.875,204.619Z" transform="translate(-678.378 -179.272)"/><path class="e" d="M817.318,250.526l-2.864,2s-1.432,4.3,0,6.3a14.687,14.687,0,0,1,2,4.869l5.728-.573Z" transform="translate(-676.127 -219.737)"/><path class="d" d="M824.937,115.4l-1.292-.517a8.812,8.812,0,0,1,6.459-2.715l-1.057-1.164s2.583-1.034,4.932,1.681a22.923,22.923,0,0,1,3.554,4.994h1.383l-.577,1.271,2.021,1.271-2.074-.228a7.035,7.035,0,0,1-.2,3.292l.056,1s-2.4-3.72-2.4-4.237v1.293s-1.292-1.164-1.292-1.939l-.7.9-.352-1.422-4.345,1.422.7-1.163-2.7.388,1.057-1.422s-3.053,1.681-3.171,3.1a7.627,7.627,0,0,1-1.644,3.232l-.7-1.293S821.531,117.34,824.937,115.4Z" transform="translate(-682.844 -110.812)"/><rect class="f" width="113.812" height="79.949" transform="translate(30.007 62.327)"/><rect class="b" width="28.577" height="49.886" transform="translate(39.588 92.832)"/><rect class="f" width="7.698" height="7.176" transform="translate(44.874 95.824)"/><rect class="f" width="7.698" height="7.176" transform="translate(55.181 95.824)"/><rect class="f" width="7.698" height="7.437" transform="translate(44.874 105.61)"/><rect class="f" width="7.698" height="7.437" transform="translate(55.181 105.61)"/><circle class="g" cx="1.817" cy="1.817" r="1.817" transform="translate(62.714 119.316)"/><rect class="b" width="56.493" height="47.408" transform="translate(77.746 88.096)"/><path class="b" d="M229.8,215.413H92.2l9.174-19.181,2.053-4.295,2.686-5.616,2.053-4.295,2.38-4.975H218.957l1.406,4.975,1.214,4.295,1.588,5.616,1.214,4.295Z" transform="translate(-74.085 -138.035)"/><rect class="h" width="1.982" height="12.224" transform="translate(79.728 107.753)"/><rect class="f" width="1.982" height="1.487" transform="translate(79.728 109.57)"/><rect class="f" width="1.982" height="1.487" transform="translate(79.728 116.673)"/><rect class="h" width="4.79" height="12.224" transform="translate(82.701 107.753)"/><rect class="f" width="4.79" height="1.487" transform="translate(82.701 109.57)"/><rect class="f" width="4.79" height="1.487" transform="translate(82.701 116.673)"/><rect class="h" width="1.982" height="12.224" transform="translate(88.648 107.753)"/><rect class="f" width="1.982" height="1.487" transform="translate(88.648 109.57)"/><rect class="f" width="1.982" height="1.487" transform="translate(88.648 116.673)"/><rect class="h" width="1.982" height="12.224" transform="translate(91.621 107.753)"/><rect class="f" width="1.982" height="1.487" transform="translate(91.621 109.57)"/><rect class="f" width="1.982" height="1.487" transform="translate(91.621 116.673)"/><rect class="h" width="1.982" height="12.224" transform="translate(93.66 108.495) rotate(-20.654)"/><rect class="f" width="1.982" height="1.487" transform="translate(94.301 110.195) rotate(-20.654)"/><rect class="f" width="1.982" height="1.487" transform="translate(96.806 116.842) rotate(-20.654)"/><rect class="h" width="4.79" height="12.224" transform="translate(127.632 107.753)"/><rect class="f" width="4.79" height="1.487" transform="translate(127.632 109.57)"/><rect class="f" width="4.79" height="1.487" transform="translate(127.632 116.673)"/><rect class="h" width="1.982" height="12.224" transform="translate(124.493 107.753)"/><rect class="f" width="1.982" height="1.487" transform="translate(124.493 109.57)"/><rect class="f" width="1.982" height="1.487" transform="translate(124.493 116.673)"/><rect class="h" width="1.982" height="12.224" transform="translate(121.52 107.753)"/><rect class="f" width="1.982" height="1.487" transform="translate(121.52 109.57)"/><rect class="f" width="1.982" height="1.487" transform="translate(121.52 116.673)"/><rect class="h" width="12.224" height="1.982" transform="translate(115.299 119.234) rotate(-69.346)"/><rect class="f" width="1.487" height="1.982" transform="translate(118.446 110.888) rotate(-69.346)"/><rect class="f" width="1.487" height="1.982" transform="translate(115.94 117.534) rotate(-69.346)"/><rect class="f" width="56.493" height="1.156" transform="translate(77.746 119.977)"/><rect class="g" width="10.407" height="12.224" transform="translate(102.358 107.753)"/><rect class="f" width="5.286" height="2.313" transform="translate(104.919 110.396)"/><rect class="f" width="0.991" height="10.572" transform="translate(105.497 88.096)"/><circle class="f" cx="1.652" cy="1.652" r="1.652" transform="translate(104.34 97.016)"/><path class="g" d="M270.8,203.923H155.337l2.053-4.295h112.2Z" transform="translate(-123.309 -155.636)"/><path class="g" d="M256.836,248.9h-123l2.053-4.295H255.622Z" transform="translate(-106.543 -190.7)"/><path class="c" d="M826.291,262.223a21.905,21.905,0,0,0-1.312,8.484,4.472,4.472,0,0,0,.739,2.113h0L805.4,282.467s-9.181.951-6.89,4.96,10.6-2,10.6-2,21.767-3.15,23.485-6.3,2.864-16.325,2.864-16.325Z" transform="translate(-663.907 -228.857)"/><path class="e" d="M922.683,208.937h4.3s3.151.573,4.01,6.3,1.718,7.16.859,7.16-11.17-.286-11.17-.573S922.683,208.937,922.683,208.937Z" transform="translate(-759.439 -187.313)"/></g><text class="i" transform="translate(299.024 3318.335)"><tspan x="0" y="0">Select Your Shop</tspan></text><text class="j" transform="translate(373.658 3348.606)"><tspan x="-93.096" y="0">Enter postcode &amp; select your</tspan><tspan x="-47.508" y="22">favourite shop</tspan></text></g></svg>