<svg xmlns="http://www.w3.org/2000/svg" xmlns:xlink="http://www.w3.org/1999/xlink" width="347.344" height="365.495" viewBox="0 0 347.344 365.495"><defs><style>.a{fill:#fff;}.b{fill:#2b2b2b;font-size:20px;font-family:PlayfairDisplay-Bold, Playfair Display;font-weight:700;}.b,.c{letter-spacing:0.002em;}.c,.i{fill:#001f60;}.c{font-size:13px;font-family:Poppins-Medium, Poppins;font-weight:500;}.d{fill:#2f2e41;}.e{fill:#9f616a;}.f{fill:#e6e6e6;}.g{fill:#f9a61b;}.h{fill:none;}.j{fill:#6c63ff;}.k{fill:#d48d17;opacity:0.1;}.l{fill:#3f3d56;}.m{filter:url(#a);}</style><filter id="a" x="0" y="0" width="347.344" height="365.495" filterUnits="userSpaceOnUse"><feOffset dy="10" input="SourceAlpha"/><feGaussianBlur stdDeviation="11" result="b"/><feFlood flood-opacity="0.161"/><feComposite operator="in" in2="b"/><feComposite in="SourceGraphic"/></filter></defs><g transform="translate(33.328 23)"><g class="m" transform="matrix(1, 0, 0, 1, -33.33, -23)"><rect class="a" width="281.344" height="299.495" rx="52" transform="translate(33 23)"/></g><text class="b" transform="translate(140.672 230.479)"><tspan x="-63.373" y="0">Receive order</tspan></text><text class="c" transform="translate(140.672 263.952)"><tspan x="-78.818" y="0">Receive order in as little </tspan><tspan x="-45.873" y="26">as 60 minutes</tspan></text><g transform="translate(28.124 33.532)"><path class="d" d="M828.478,199.854H798.327c-4.081-11.047-5.853-21.318,0-29.028A15.075,15.075,0,0,1,813.4,155.75h0a15.056,15.056,0,0,1,12.289,6.341,12.619,12.619,0,0,1,1.494,11.533C824.75,180.528,826.237,189.949,828.478,199.854Z" transform="translate(-631.247 -155.75)"/><path class="d" d="M970.934,703.593h0a4.08,4.08,0,0,1-3.9-2.88l-1.242-4.037a6.009,6.009,0,0,1-.161-2.885l.846-4.472h5.934l2.462,9.131a4.08,4.08,0,0,1-3.939,5.143Z" transform="translate(-757.779 -550.672)"/><path class="d" d="M808.33,703.593h0a4.08,4.08,0,0,0,3.9-2.88l1.242-4.037a6.011,6.011,0,0,0,.161-2.885l-.846-4.472h-5.934l-2.462,9.131a4.08,4.08,0,0,0,3.939,5.143Z" transform="translate(-638.41 -550.672)"/><path class="d" d="M847.281,466.415h-6.575l-28.547-54.208-5.267,54.208h-5.8c-2.975-34.136-10.214-66.651,0-78.906l23.9,2.245Z" transform="translate(-632.167 -327.287)"/><circle class="e" cx="8.019" cy="8.019" r="8.019" transform="translate(173.335 7.538)"/><path class="e" d="M848.078,260.424h-17.8l-3.047-14.113c5.912-1.746,7.321-5.809,6.094-11.226l9.623-.642c.545,4.364,1.543,8.434,7.7,9.142Z" transform="translate(-655.418 -213.994)"/><path class="f" d="M838.942,301.363c-10.1,3.835-18.317,3.715-24.057-1.6,2.59-8.542,2.745-19.061,1.6-30.632l3.208-1.443,1.123,10.264,15.877-.8,3.528-11.226,3.528.8C844.024,280.641,843.19,293.163,838.942,301.363Z" transform="translate(-646.281 -237.293)"/><path class="e" d="M923.619,369.392l1.886,6.129a3.32,3.32,0,0,1-3.173,4.3h0a3.32,3.32,0,0,1-3.3-3.665l.74-7.081-3.047-24.057,2.245-10.585h5.613Z" transform="translate(-721.657 -288)"/><path class="e" d="M759.6,366.787l-3.314,5.49a3.32,3.32,0,0,0,2.038,4.937h0a3.32,3.32,0,0,0,4.091-2.756l1-7.049,8.783-22.6,1.771-10.824-6.832-1.349Z" transform="translate(-602.555 -286.67)"/><path class="f" d="M932.246,286.376l-10.585-.16V267.772l1.63.238A7.791,7.791,0,0,1,929.924,275Z" transform="translate(-725.312 -238.663)"/><path class="f" d="M788.345,293.782l10.585-.16V275.178l-1.63.238a7.791,7.791,0,0,0-6.634,6.991Z" transform="translate(-626.638 -244.145)"/><path class="d" d="M845.747,181.162c-3.406,1.927-9.953,2.809-14.755,1.443l-1.6-8.34h15.877Z" transform="translate(-657.017 -169.455)"/><rect class="f" width="52.462" height="42.186" transform="translate(10.276 110.873)"/><rect class="g" width="8.835" height="11.953" transform="translate(32.091 140.578)"/><path class="h" d="M426.365,714.667l-.9-.755.067.471S425.849,714.484,426.365,714.667Z" transform="translate(-358.05 -568.875)"/><path class="i" d="M488.026,393.827l1.39-3.707,12.974-7.414,8.8-1.853Z" transform="translate(-361.213 -281.889)"/><path class="i" d="M238.358,393.827l-1.39-3.707-12.974-7.414-8.8-1.853Z" transform="translate(-159.273 -281.889)"/><path class="j" d="M338.487,378.916H288.906l-4.17-19.462h57.922Z" transform="translate(-210.748 -266.051)"/><path class="k" d="M338.487,378.916H288.906l-4.17-19.462h57.922Z" transform="translate(-210.748 -266.051)"/><rect class="g" width="50.044" height="41.084" transform="translate(77.927 111.707)"/><rect class="l" width="8.835" height="11.953" transform="translate(98.531 140.572)"/><path class="l" d="M225.429,586.575H0v-.567H225.532Z" transform="translate(0 -433.735)"/><rect class="a" width="20.788" height="6.496" transform="translate(92.555 120.115)"/><rect class="a" width="20.788" height="6.496" transform="translate(25.977 120.115)"/></g></g></svg>