<svg xmlns="http://www.w3.org/2000/svg" width="226.34" height="45.485" viewBox="0 0 226.34 45.485"><defs><style>.a{fill:#00184e;}.b{fill:#fb9300;}</style></defs><g transform="translate(-122 -161.12)"><g transform="translate(122 165.725)"><g transform="translate(0 0)"><path class="a" d="M126.985,195.724l10.395.025a2.437,2.437,0,0,1,2.479,2.479,2.518,2.518,0,0,1-.188.976,2.416,2.416,0,0,1-1.315,1.315,2.239,2.239,0,0,1-.976.163h-13.2l-.2-.05a2.407,2.407,0,0,1-1.428-.839,2.372,2.372,0,0,1-.551-1.565V171.1a2.508,2.508,0,0,1,.188-.976,2.408,2.408,0,0,1,1.314-1.314,2.63,2.63,0,0,1,1.954,0,2.4,2.4,0,0,1,.789.525,2.589,2.589,0,0,1,.539.789,2.378,2.378,0,0,1,.2.976Z" transform="translate(-122 -168.62)"/><path class="a" d="M154.336,189.689a12.059,12.059,0,0,1,6.375-6.361,11.85,11.85,0,0,1,13.06,2.567,12.25,12.25,0,0,1,2.555,3.794,11.963,11.963,0,0,1,0,9.292,12.235,12.235,0,0,1-2.555,3.794,11.936,11.936,0,0,1-19.435-13.087Zm4.621,7.339a7.007,7.007,0,0,0,3.694,3.694,6.923,6.923,0,0,0,5.41,0,7.079,7.079,0,0,0,2.2-1.49,6.923,6.923,0,0,0,1.477-2.2,7.03,7.03,0,0,0,0-5.395,6.888,6.888,0,0,0-3.682-3.668,6.964,6.964,0,0,0-7.615,1.478,7.125,7.125,0,0,0-1.49,2.191,6.892,6.892,0,0,0,0,5.395Z" transform="translate(-134.085 -173.919)"/><path class="a" d="M200.814,194.254l-.025.049.025.026a6.633,6.633,0,0,0,.487,2.492A7.237,7.237,0,0,0,202.668,199a6.914,6.914,0,0,0,2.068,1.553,6.024,6.024,0,0,0,2.592.613,7.515,7.515,0,0,0,2.455-.3,6.437,6.437,0,0,0,2.3-1.3q.377-.3.815-.589a2.833,2.833,0,0,1,.927-.4,2.359,2.359,0,0,1,1.052.013,2.719,2.719,0,0,1,1.169.651,2.263,2.263,0,0,1,.6.826,2.338,2.338,0,0,1,.188.976,2.671,2.671,0,0,1-.238,1.014,3.161,3.161,0,0,1-.676.965,9.99,9.99,0,0,1-3.662,2.387,12.465,12.465,0,0,1-4.484.809,12.177,12.177,0,0,1-8.528-3.417,11.758,11.758,0,0,1-2.592-3.756,11.413,11.413,0,0,1-.952-4.647v-.024l.025-.05-.025-.026a11.562,11.562,0,0,1,.952-4.683,12.117,12.117,0,0,1,6.424-6.375,11.791,11.791,0,0,1,4.7-.939,12.452,12.452,0,0,1,4.484.809,9.98,9.98,0,0,1,3.657,2.392,3.169,3.169,0,0,1,.676.965,2.7,2.7,0,0,1,.238,1.027,2.371,2.371,0,0,1-.188.989,2.253,2.253,0,0,1-.6.826,2.713,2.713,0,0,1-1.169.651,2.248,2.248,0,0,1-1.052,0,3.034,3.034,0,0,1-.927-.414q-.438-.288-.815-.589a6.643,6.643,0,0,0-2.3-1.277,7.981,7.981,0,0,0-2.455-.325,6.229,6.229,0,0,0-2.567.638,6.923,6.923,0,0,0-2.068,1.553,7.433,7.433,0,0,0-1.377,2.179,6.548,6.548,0,0,0-.5,2.53Z" transform="translate(-150.373 -173.886)"/><path class="a" d="M233.577,194.335a11.559,11.559,0,0,1,.94-4.646,12.059,12.059,0,0,1,6.375-6.361,11.829,11.829,0,0,1,13.012,2.53,12.324,12.324,0,0,1,2.567,3.769,11.582,11.582,0,0,1,.976,4.609v9.192a2.468,2.468,0,0,1-.2.989,2.709,2.709,0,0,1-.539.814,2.428,2.428,0,0,1-.809.551,2.548,2.548,0,0,1-1,.2,2.267,2.267,0,0,1-1.665-.66,2.58,2.58,0,0,1-.763-1.607,12.12,12.12,0,0,1-3.231,1.882,10.087,10.087,0,0,1-3.706.685,11.581,11.581,0,0,1-4.634-.939,12.062,12.062,0,0,1-6.375-6.362A11.556,11.556,0,0,1,233.577,194.335Zm4.985.013a6.68,6.68,0,0,0,.552,2.7,7.022,7.022,0,0,0,3.7,3.7,6.931,6.931,0,0,0,5.42,0,7.1,7.1,0,0,0,2.208-1.493,6.923,6.923,0,0,0,1.481-2.208,7.038,7.038,0,0,0,0-5.407,6.9,6.9,0,0,0-3.686-3.676,6.976,6.976,0,0,0-7.628,1.481,7.132,7.132,0,0,0-1.492,2.195A6.658,6.658,0,0,0,238.562,194.348Z" transform="translate(-164.952 -173.919)"/><path class="a" d="M285.473,198.228a2.359,2.359,0,0,1-.714,1.753,2.428,2.428,0,0,1-1.766.7,2.465,2.465,0,0,1-1.778-.7,2.338,2.338,0,0,1-.727-1.753V171.074a2.338,2.338,0,0,1,.727-1.753,2.463,2.463,0,0,1,1.778-.7,2.421,2.421,0,0,1,1.766.7,2.359,2.359,0,0,1,.714,1.753Z" transform="translate(-183.011 -168.619)"/><path class="a" d="M301.761,198.228a2.355,2.355,0,0,1-.714,1.753,2.422,2.422,0,0,1-1.766.7,2.465,2.465,0,0,1-1.778-.7,2.338,2.338,0,0,1-.727-1.753V171.074a2.338,2.338,0,0,1,.727-1.753,2.463,2.463,0,0,1,1.778-.7,2.42,2.42,0,0,1,1.766.7,2.355,2.355,0,0,1,.714,1.753Z" transform="translate(-189.282 -168.619)"/><path class="a" d="M320.751,197.725l6.211-13.846a2.637,2.637,0,0,1,.589-.815,2.561,2.561,0,0,1,.8-.512,2.459,2.459,0,0,1,.927-.18,2.233,2.233,0,0,1,.964.225,2.822,2.822,0,0,1,.826.589,2.422,2.422,0,0,1,.45,2.742l-12.473,27.35a2.634,2.634,0,0,1-.589.815,2.532,2.532,0,0,1-.809.513,2.623,2.623,0,0,1-.952.175,2.255,2.255,0,0,1-.977-.226,2.013,2.013,0,0,1-1.2-1.349,2.8,2.8,0,0,1,.2-1.929l3.4-7.665L310.106,185.9a2.434,2.434,0,0,1-.075-1.929,2.542,2.542,0,0,1,.514-.815,2.646,2.646,0,0,1,.809-.589,2.242,2.242,0,0,1,.964-.225,2.438,2.438,0,0,1,1.729.7,2.821,2.821,0,0,1,.589.826Z" transform="translate(-194.321 -173.902)"/><path class="b" d="M399.679,196.589a6.738,6.738,0,0,0,.914,1.954,6.654,6.654,0,0,0,1.466,1.553,6.743,6.743,0,0,0,1.888,1.014,6.589,6.589,0,0,0,2.191.36,6.48,6.48,0,0,0,2.679-.487,5.42,5.42,0,0,0,1.8-1.289,2.743,2.743,0,0,1,1.278-.589,2.546,2.546,0,0,1,1.2.112,1.772,1.772,0,0,1,.7.414,2.807,2.807,0,0,1,.5.638,2.594,2.594,0,0,1,.414,1.641,2.328,2.328,0,0,1-.94,1.64,9.771,9.771,0,0,1-1.3,1.04,8.912,8.912,0,0,1-1.665.863,10.962,10.962,0,0,1-2.092.589,14.3,14.3,0,0,1-2.58.212,11.784,11.784,0,0,1-4.658-.926,11.946,11.946,0,0,1,9.28-22.016,12.123,12.123,0,0,1,6.384,6.287,11.441,11.441,0,0,1,.989,4.609,2.275,2.275,0,0,1-.689,1.716,2.44,2.44,0,0,1-1.767.664ZM413,192.432a6.914,6.914,0,0,0-.888-2.117,6.68,6.68,0,0,0-1.5-1.665,7.088,7.088,0,0,0-4.4-1.5,6.94,6.94,0,0,0-2.366.4,6.723,6.723,0,0,0-4.32,4.884Z" transform="translate(-226.763 -173.918)"/><path class="b" d="M441.992,195.1a13.149,13.149,0,0,1-2.53-1.427,6.551,6.551,0,0,1-1.778-1.917,4.945,4.945,0,0,1-.664-2.607,5.918,5.918,0,0,1,.689-2.856,6.842,6.842,0,0,1,1.829-2.167,8.6,8.6,0,0,1,2.629-1.377,9.876,9.876,0,0,1,3.094-.488,11.338,11.338,0,0,1,2.158.214,10.939,10.939,0,0,1,2.1.629,7.666,7.666,0,0,1,1.8,1.047,4.347,4.347,0,0,1,1.227,1.486,2.324,2.324,0,0,1,.25,1.37,1.994,1.994,0,0,1-.526,1.091,2.316,2.316,0,0,1-1.127.689,1.888,1.888,0,0,1-1.327-.113q-.525-.376-1-.739a8.4,8.4,0,0,0-.965-.639,5.651,5.651,0,0,0-1.027-.45,3.912,3.912,0,0,0-1.214-.18,5.168,5.168,0,0,0-2.555.577,1.9,1.9,0,0,0-1.027,1.778,1.751,1.751,0,0,0,.325,1.052,3.1,3.1,0,0,0,.889.8,7.344,7.344,0,0,0,1.341.638q.775.29,1.7.565,1.5.476,2.856,1.027a10.165,10.165,0,0,1,2.392,1.349,6.108,6.108,0,0,1,1.653,1.929,5.637,5.637,0,0,1,.614,2.731,6.2,6.2,0,0,1-.639,2.787,6.923,6.923,0,0,1-1.765,2.241,8.541,8.541,0,0,1-2.668,1.5,9.864,9.864,0,0,1-3.344.55,13.145,13.145,0,0,1-2.442-.238,10.985,10.985,0,0,1-2.428-.756,8.976,8.976,0,0,1-2.128-1.322,6.442,6.442,0,0,1-1.566-1.94,2.723,2.723,0,0,1-.388-1.366,2.14,2.14,0,0,1,1.079-1.878,2.413,2.413,0,0,1,1.09-.326,2.621,2.621,0,0,1,1.227.238,3.109,3.109,0,0,1,1.152.927,5.194,5.194,0,0,0,1.815,1.715,5.453,5.453,0,0,0,2.568.539,5.084,5.084,0,0,0,1.327-.175,4.454,4.454,0,0,0,1.169-.488,2.509,2.509,0,0,0,.809-.777,2.058,2.058,0,0,0-.1-2.292,3.4,3.4,0,0,0-1-.84,7.038,7.038,0,0,0-1.315-.564q-.714-.225-1.341-.425Q443.407,195.715,441.992,195.1Z" transform="translate(-243.044 -173.871)"/><path class="b" d="M476.609,177.144h2.158a2.451,2.451,0,0,1,1.79.7,2.358,2.358,0,0,1,.714,1.753,2.474,2.474,0,0,1-.714,1.8,2.407,2.407,0,0,1-1.79.726h-2.158v16.1a2.36,2.36,0,0,1-.714,1.753,2.427,2.427,0,0,1-1.767.7,2.464,2.464,0,0,1-1.778-.7,2.338,2.338,0,0,1-.727-1.753v-16.1h-1.805a2.382,2.382,0,0,1-.976-.2,2.492,2.492,0,0,1-.789-.551,2.766,2.766,0,0,1-.54-.8,2.371,2.371,0,0,1-.2-.977,2.337,2.337,0,0,1,.727-1.753,2.464,2.464,0,0,1,1.778-.7h1.8v-6.062a2.337,2.337,0,0,1,.727-1.753,2.462,2.462,0,0,1,1.778-.7,2.422,2.422,0,0,1,1.767.7,2.359,2.359,0,0,1,.714,1.753Z" transform="translate(-254.932 -168.619)"/></g></g><g transform="translate(262.814 161.12)"><path class="b" d="M367.68,193.436h-.041a5.289,5.289,0,0,0-5.342,5.35c.013,3.545,4.577,8.31,5.215,8.962a.1.1,0,0,0,.149,0c.646-.649,5.239-5.389,5.237-9a5.234,5.234,0,0,0-5.217-5.309Zm-.08,7.351a2.186,2.186,0,1,1,2.186-2.186A2.186,2.186,0,0,1,367.6,200.787Z" transform="translate(-355.319 -173.565)"/><g transform="translate(0 0)"><path class="b" d="M350.967,185.479a17.438,17.438,0,0,0,.12,2.721,12.213,12.213,0,0,0,15.849,9.773,11.765,11.765,0,0,0,8.092-8.485,2.215,2.215,0,0,0-3.9-1.924,3.239,3.239,0,0,0-.328.846,16.114,16.114,0,0,1-2.551,5,31.8,31.8,0,0,1-3.13,3.707,2.652,2.652,0,0,1-1.888.787,2.687,2.687,0,0,1-1.905-.8,32.727,32.727,0,0,1-3.1-3.706,17.453,17.453,0,0,1-2.343-4.327,7.863,7.863,0,0,1-.3-1.048,7.586,7.586,0,0,1-.2-1.67,7.854,7.854,0,0,1,7.908-7.924h.059a7.747,7.747,0,0,1,7.274,5.075,2.115,2.115,0,0,0,.893,1.1,2.083,2.083,0,0,0,1.888.11,2.182,2.182,0,0,0,1.163-3,12.115,12.115,0,0,0-9.511-7.517,21.181,21.181,0,0,0-2.858-.129l5.972-8.529c.876-1.259.73-2.684-.443-3.359-1.272-.731-2.3-.285-3.616,1.612l-3.482,4.664,1.324-4.243a2.226,2.226,0,1,0-4.226-1.349l-2.282,7.488s.017-3.116,0-4.344a2.235,2.235,0,1,0-4.47-.011Z" transform="translate(-350.957 -161.12)"/></g></g></g></svg>